HIERARCHY
ROOT Hips
{
	OFFSET -0.001795 -0.223333 0.028219
	CHANNELS 6 Xposition Yposition Zposition Zrotation Yrotation Xrotation 
	JOINT LeftUpLeg
	{
		OFFSET 0.069520 -0.091406 -0.006815
		CHANNELS 3 Zrotation Yrotation Xrotation
		JOINT LeftLeg
		{
			OFFSET 0.034277 -0.375199 -0.004496
			CHANNELS 3 Zrotation Yrotation Xrotation
			JOINT LeftFoot
			{
				OFFSET -0.013596 -0.397961 -0.043693
				CHANNELS 3 Zrotation Yrotation Xrotation
				JOINT LeftToe
				{
					OFFSET 0.026358 -0.055791 0.119288
					CHANNELS 3 Zrotation Yrotation Xrotation
					End Site
					{
						OFFSET 0.000000 0.000000 0.000000
					}
				}
			}
		}
	}
	JOINT RightUpLeg
	{
		OFFSET -0.067670 -0.090522 -0.004320
		CHANNELS 3 Zrotation Yrotation Xrotation
		JOINT RightLeg
		{
			OFFSET -0.038290 -0.382569 -0.008850
			CHANNELS 3 Zrotation Yrotation Xrotation
			JOINT RightFoot
			{
				OFFSET 0.015774 -0.398415 -0.042312
				CHANNELS 3 Zrotation Yrotation Xrotation
				JOINT RightToe
				{
					OFFSET -0.025372 -0.048144 0.123348
					CHANNELS 3 Zrotation Yrotation Xrotation
					End Site
					{
						OFFSET 0.000000 0.000000 0.000000
					}
				}
			}
		}
	}
	JOINT Spine
	{
		OFFSET -0.002533 0.108963 -0.026696
		CHANNELS 3 Zrotation Yrotation Xrotation
		JOINT Spine1
		{
			OFFSET 0.005487 0.135180 0.001092
			CHANNELS 3 Zrotation Yrotation Xrotation
			JOINT Spine2
			{
				OFFSET 0.001457 0.052922 0.025425
				CHANNELS 3 Zrotation Yrotation Xrotation
				JOINT Neck
				{
					OFFSET -0.002778 0.213870 -0.042857
					CHANNELS 3 Zrotation Yrotation Xrotation
					JOINT Head
					{
						OFFSET 0.005152 0.064970 0.051349
						CHANNELS 3 Zrotation Yrotation Xrotation
						End Site
						{
							OFFSET 0.000000 0.000000 0.000000
						}
					}
				}
				JOINT LeftShoulder
				{
					OFFSET 0.078845 0.121749 -0.034090
					CHANNELS 3 Zrotation Yrotation Xrotation
					JOINT LeftArm
					{
						OFFSET 0.090977 0.030469 -0.008868
						CHANNELS 3 Zrotation Yrotation Xrotation
						JOINT LeftForeArm
						{
							OFFSET 0.259612 -0.012772 -0.027456
							CHANNELS 3 Zrotation Yrotation Xrotation
							JOINT LeftHand
							{
								OFFSET 0.249234 0.008986 -0.001171
								CHANNELS 3 Zrotation Yrotation Xrotation
								End Site
								{
									OFFSET 0.000000 0.000000 0.000000
								}
							}
						}
					}
				}
				JOINT RightShoulder
				{
					OFFSET -0.081759 0.118833 -0.038615
					CHANNELS 3 Zrotation Yrotation Xrotation
					JOINT RightArm
					{
						OFFSET -0.096012 0.032551 -0.009143
						CHANNELS 3 Zrotation Yrotation Xrotation
						JOINT RightForeArm
						{
							OFFSET -0.253742 -0.013329 -0.021401
							CHANNELS 3 Zrotation Yrotation Xrotation
							JOINT RightHand
							{
								OFFSET -0.255298 0.007772 -0.005559
								CHANNELS 3 Zrotation Yrotation Xrotation
								End Site
								{
									OFFSET 0.000000 0.000000 0.000000
								}
							}
						}
					}
				}
			}
		}
	}
}
MOTION
Frames: 13
Frame Time: 0.050000
0.000000 0.968815 0.000000 -0.956304 -2.556563 -0.512334 3.563317 0.193720 3.406069 -2.288704 0.319173 -3.980163 0.728963 4.677752 8.990446 0.000000 0.000000 0.000000 -0.865150 -0.161117 2.041869 1.479769 -0.171811 -0.828003 -0.906848 -3.709182 2.975363 0.000000 0.000000 0.000000 -1.843645 -0.118719 5.420414 4.978884 -0.862939 -21.228061 -1.242089 1.790755 24.797149 -0.636088 1.893533 -23.372844 0.000000 0.000000 0.000000 -34.658561 -3.132994 -0.346182 -42.888498 -5.409229 -5.103613 -11.063870 -25.626968 3.709125 0.000000 0.000000 0.000000 24.629988 8.243545 3.534218 49.577690 1.142725 -6.454087 15.116730 33.939029 5.947674 0.000000 0.000000 0.000000 
0.000151 0.967851 -0.000033 -1.040556 -2.782246 -0.031068 3.841708 0.176740 3.311895 -2.320386 0.328982 -4.431443 0.400598 3.957162 8.607740 0.000000 0.000000 0.000000 -0.951752 -0.099574 1.411456 1.569211 -0.173347 -0.608743 -0.738110 -3.202793 2.711754 0.000000 0.000000 0.000000 -1.773544 -0.100955 4.616688 4.561905 -0.813090 -20.384119 -0.988769 1.936695 23.859263 -0.767843 2.006650 -24.011185 0.000000 0.000000 0.000000 -35.018190 -3.123312 -0.435102 -42.926394 -4.868237 -5.195853 -10.713099 -25.702751 3.634652 0.000000 0.000000 0.000000 24.733444 8.112129 3.430122 50.085079 -0.463426 -7.049647 15.685507 34.984012 6.335361 0.000000 0.000000 0.000000 
0.000375 0.967414 -0.000151 -0.810981 -2.596908 -0.028522 3.873738 0.114466 2.331315 -2.678866 0.333287 -2.406169 0.271924 3.364132 7.432742 0.000000 0.000000 0.000000 -1.071394 -0.069183 1.117442 1.381279 -0.141824 -0.099763 -0.921739 -3.503181 2.434880 0.000000 0.000000 0.000000 -1.498219 -0.112377 4.538452 4.166911 -0.657239 -21.022106 -1.321858 1.634462 24.563290 -0.684234 1.898202 -23.482201 0.000000 0.000000 0.000000 -34.729231 -3.045721 -0.338029 -42.479442 -5.105125 -5.173162 -11.578405 -25.188864 3.755995 0.000000 0.000000 0.000000 25.102535 8.643975 3.705670 50.334097 -1.216646 -7.415632 14.327113 34.493453 5.792399 0.000000 0.000000 0.000000 
0.000506 0.967663 -0.000339 -0.823451 -2.750143 0.114993 3.949235 0.104639 2.193729 -2.929050 0.357788 -2.419474 0.447335 3.686967 7.490002 0.000000 0.000000 0.000000 -1.187787 -0.037313 0.812414 1.812854 -0.175596 0.238104 -1.058085 -3.738278 2.231246 0.000000 0.000000 0.000000 -1.790974 -0.087357 4.132262 4.720270 -0.803020 -21.090621 -1.505118 1.730803 24.613056 -0.301723 1.685044 -23.857467 0.000000 0.000000 0.000000 -35.687747 -2.722230 -0.667702 -42.005491 -4.872214 -5.180269 -11.452141 -24.902437 3.676107 0.000000 0.000000 0.000000 25.297084 9.318859 4.126589 50.186738 -1.617073 -7.546195 13.961856 34.596154 5.689631 0.000000 0.000000 0.000000 
0.000714 0.968184 -0.000516 -0.871697 -2.845954 -0.175826 3.837952 0.106813 2.126893 -2.848300 0.345240 -1.785389 0.725040 4.172143 7.453093 0.000000 0.000000 0.000000 -1.022709 -0.048744 0.870623 1.675044 -0.154149 0.518495 -1.098597 -3.915226 2.405518 0.000000 0.000000 0.000000 -1.589807 -0.106575 4.464874 4.547277 -0.769054 -20.978475 -1.566707 1.802886 24.540630 -0.310741 1.679605 -23.558216 0.000000 0.000000 0.000000 -35.582066 -2.828630 -0.592312 -41.940542 -4.654016 -5.232461 -11.931064 -25.204632 3.827197 0.000000 0.000000 0.000000 25.313632 9.096224 3.989310 50.524212 -1.811642 -7.671012 13.769490 34.296887 5.581739 0.000000 0.000000 0.000000 
0.000993 0.968499 -0.000679 -0.850585 -2.743263 -0.242178 3.769690 0.113263 2.213210 -2.868373 0.346986 -1.802181 0.754795 4.225500 7.420503 0.000000 0.000000 0.000000 -1.119623 -0.046021 0.874500 1.763812 -0.159998 0.671327 -1.110434 -3.938337 2.401414 0.000000 0.000000 0.000000 -1.827583 -0.095906 4.481376 4.734090 -0.790496 -21.350377 -1.523626 1.550556 25.009737 -0.578753 1.843075 -24.368414 0.000000 0.000000 0.000000 -35.765621 -2.665701 -0.607478 -42.064460 -4.564094 -5.344680 -12.056601 -25.308915 3.887608 0.000000 0.000000 0.000000 25.223240 9.352028 4.096765 50.653213 -1.586437 -7.635253 13.070318 33.490599 5.218664 0.000000 0.000000 0.000000 
0.001276 0.968713 -0.000864 -0.880702 -2.974617 -0.425564 3.714184 0.132093 2.433477 -2.752555 0.336811 -1.819922 0.821904 4.352874 7.499129 0.000000 0.000000 0.000000 -0.996017 -0.044498 0.810619 1.597325 -0.135426 0.902135 -1.082170 -3.955457 2.573075 0.000000 0.000000 0.000000 -1.791671 -0.100079 4.548788 4.671566 -0.795053 -21.151898 -1.438792 1.650734 24.978882 -0.468376 1.768887 -24.330055 0.000000 0.000000 0.000000 -36.019699 -2.597808 -0.652436 -42.140053 -4.307035 -5.441424 -12.032020 -25.049400 3.841945 0.000000 0.000000 0.000000 25.245549 9.461368 4.141322 50.657852 -1.240804 -7.493972 12.648334 33.305712 5.058381 0.000000 0.000000 0.000000 
0.001565 0.968706 -0.001053 -0.851252 -3.158208 -0.482703 3.647129 0.143063 2.542414 -2.726099 0.336186 -1.917121 0.869306 4.452552 7.593835 0.000000 0.000000 0.000000 -0.935398 -0.035279 0.687604 1.481003 -0.119714 0.994220 -1.110780 -4.098931 2.730875 0.000000 0.000000 0.000000 -1.835234 -0.098931 4.583744 4.657148 -0.784070 -21.331577 -1.409424 1.708789 25.198373 -0.881661 2.007093 -24.315726 0.000000 0.000000 0.000000 -35.826945 -2.520926 -0.646642 -42.259420 -4.108630 -5.547989 -12.286330 -25.039789 3.903429 0.000000 0.000000 0.000000 25.068638 9.445571 4.111832 50.768430 -0.674986 -7.301604 12.163403 32.704742 4.815965 0.000000 0.000000 0.000000 
0.001820 0.968719 -0.001207 -0.824462 -3.455887 -0.529769 3.514763 0.168927 2.837202 -2.632651 0.331231 -2.175970 0.988264 4.612637 7.490513 0.000000 0.000000 0.000000 -0.970129 -0.036428 0.721380 1.425135 -0.113818 0.955190 -1.000194 -3.850513 2.730494 0.000000 0.000000 0.000000 -1.799689 -0.100276 4.570890 4.626003 -0.791960 -21.211043 -1.318701 1.837145 25.074183 -1.083217 2.115813 -24.189391 0.000000 0.000000 0.000000 -35.763680 -2.601846 -0.555562 -42.394059 -3.783250 -5.664198 -12.427189 -24.708165 3.877820 0.000000 0.000000 0.000000 25.235056 9.731335 4.257573 50.527058 0.003543 -6.977711 11.190954 32.417896 4.482206 0.000000 0.000000 0.000000 
0.002078 0.968726 -0.001326 -0.749789 -3.805633 -0.632321 3.298238 0.187302 2.956719 -2.492813 0.320232 -2.246680 1.170137 4.979295 7.719223 0.000000 0.000000 0.000000 -1.042989 -0.036750 0.763308 1.430927 -0.117167 0.820657 -0.939427 -3.811832 2.928301 0.000000 0.000000 0.000000 -1.723546 -0.102003 4.486736 4.466400 -0.760612 -21.177656 -1.280726 2.069290 25.199414 -1.670128 2.476822 -24.291713 0.000000 0.000000 0.000000 -35.726599 -2.616247 -0.537025 -42.140652 -3.465370 -5.741700 -12.920144 -24.642885 3.970364 0.000000 0.000000 0.000000 25.472118 10.033695 4.448249 50.378682 0.689113 -6.694846 10.387929 31.921730 4.178526 0.000000 0.000000 0.000000 
0.002398 0.968700 -0.001426 -0.563281 -3.846987 -0.548855 3.160039 0.188259 2.915895 -2.574120 0.330317 -2.401160 1.077440 4.854232 7.883146 0.000000 0.000000 0.000000 -1.350841 -0.015997 0.655329 1.540960 -0.129773 0.773188 -0.902065 -3.740427 2.958044 0.000000 0.000000 0.000000 -1.729097 -0.096903 4.319846 4.412540 -0.756229 -21.029537 -1.238597 2.190752 25.100308 -1.966100 2.667813 -24.213578 0.000000 0.000000 0.000000 -35.431676 -2.755257 -0.460714 -42.195350 -3.251587 -5.791676 -13.314970 -24.396408 4.006975 0.000000 0.000000 0.000000 25.578260 10.353965 4.674313 50.119024 1.408781 -6.370076 9.566953 31.102019 3.829428 0.000000 0.000000 0.000000 
0.002755 0.968819 -0.001544 -0.366642 -3.871120 -0.577278 2.928090 0.200999 2.998081 -2.445148 0.318168 -2.423995 0.889876 4.498006 7.828218 0.000000 0.000000 0.000000 -1.471597 -0.006839 0.598894 1.417077 -0.121115 0.622556 -0.959002 -4.022227 3.282670 0.000000 0.000000 0.000000 -1.650114 -0.099187 4.275726 4.237753 -0.697625 -21.202002 -1.176642 2.374645 25.207349 -2.543980 3.041529 -24.142268 0.000000 0.000000 0.000000 -35.264899 -2.740012 -0.531961 -42.162124 -2.822221 -5.908424 -13.840639 -24.289120 4.096359 0.000000 0.000000 0.000000 25.638275 10.648461 4.917856 50.074948 1.851455 -6.211658 8.925364 30.640686 3.600800 0.000000 0.000000 0.000000 
0.003110 0.969055 -0.001758 -0.196601 -3.925144 -0.627801 2.739497 0.208643 3.017121 -2.461767 0.320028 -2.413057 0.862978 4.480633 7.952664 0.000000 0.000000 0.000000 -1.517460 0.002505 0.507929 1.299130 -0.104207 0.775848 -1.096325 -4.343436 3.288294 0.000000 0.000000 0.000000 -1.644445 -0.102615 4.412270 4.220886 -0.688133 -21.295927 -1.130854 2.714436 25.094454 -2.727574 3.197170 -23.816764 0.000000 0.000000 0.000000 -35.019304 -2.725145 -0.672309 -42.196002 -2.500118 -5.966601 -14.347007 -24.283385 4.195592 0.000000 0.000000 0.000000 25.677870 10.887103 5.167716 49.710574 2.025308 -6.114831 8.997497 30.517555 3.604580 0.000000 0.000000 0.000000 
